<svg width="65" height="22" viewBox="0 0 65 22" fill="none" xmlns="http://www.w3.org/2000/svg">
<path d="M53.8994 21.3488C53.9906 21.3489 54.0809 21.332 54.1648 21.299C54.2487 21.266 54.3246 21.2177 54.3878 21.1569L64.3717 11.5862C64.4938 11.4697 64.562 11.3139 64.562 11.1517C64.562 10.9894 64.4938 10.8336 64.3717 10.7171L54.3444 1.10756C54.2836 1.04472 54.2097 0.993856 54.1272 0.958C54.0447 0.922145 53.9552 0.902037 53.8641 0.898878C53.773 0.895719 53.6821 0.909574 53.5969 0.939614C53.5117 0.969655 53.4339 1.01526 53.3682 1.07372C53.3026 1.13217 53.2503 1.20227 53.2145 1.27982C53.1788 1.35737 53.1604 1.44078 53.1603 1.52507C53.1602 1.60936 53.1786 1.6928 53.2142 1.7704C53.2498 1.848 53.3019 1.91817 53.3675 1.97671L62.9404 11.151L53.411 20.2865C53.3186 20.3751 53.2564 20.4868 53.2323 20.6078C53.2081 20.7288 53.223 20.8537 53.275 20.967C53.3271 21.0802 53.4141 21.1768 53.5251 21.2447C53.6361 21.3126 53.7663 21.3488 53.8994 21.3488Z" fill="#AFAFAF"/>
<path d="M31.0828 11.6235H63.8876C64.0675 11.6235 64.24 11.5709 64.3673 11.4771C64.4945 11.3833 64.5659 11.2561 64.5659 11.1235C64.5659 10.9909 64.4945 10.8638 64.3673 10.77C64.24 10.6762 64.0675 10.6235 63.8876 10.6235H31.0828C30.9029 10.6235 30.7303 10.6762 30.6031 10.77C30.4759 10.8638 30.4044 10.9909 30.4044 11.1235C30.4044 11.2561 30.4759 11.3833 30.6031 11.4771C30.7303 11.5709 30.9029 11.6235 31.0828 11.6235Z" fill="#AFAFAF"/>
<rect x="0.804794" y="10.6235" width="30.9245" height="1" rx="0.5" fill="#AFAFAF"/>
</svg>
