<svg width="1920" height="470" fill="none" xmlns="http://www.w3.org/2000/svg"><path d="M1947.31 3.297l-4.84 1.598L1927.6 2l-12.94 6.201-13.77 1.467-14.42-1.87-11.51 11.997-13.84.654-10.55 10.06-14.54-.038-11.6 7.253-12.36 5.419-11.58 8.347-14.63-3.086-11.91 10.199-14.08-5.453-13.65 1.818-13.59 2.54-13.62 2.542-13.01 4.377-11.27 9.97-14.08-.811-13.01 3.67-12.65 1.06-12.03 6.422-13.44-4.818-11.22 8.436-11.17 5.999-13.2.742-10.71 7.324-10.22 8.152-14.2.527-9.91 10.643-11.93 7.217-15.04-3.101-10.76 11.804-12.49 5.259-13.56 1.412-12.98 3.795-11.96 6.563-13.37 5.05-5.91 16.197-10.05 10.589-10.91 10.235-10.1 11.699-14.82 3.1-13.46 7.024-14.32-7.956-14.59-1.36-15.23 1.782-14.15-3.053-13.77 2.082-13.77-7.112-13.85 6.282-13.75-2.576-13.67-1.693-13.85-.759-13.53-3.124-11.7-9.285-14.96.937-11.65-8.348-12.51-6.282-11.43-8.257-13.63-4.448-8.9-12.67-12.87-6.122-12.84-6.178-9.93-10.818-10.31-10.268-10.98-9.318-15.33-1.713-11.05-9.087-12.84-5.629-11.48-8.772-13.29.53-10.96-10.04-12.793-1.817-12.77-1.059-12.746-.16-12.77 3.652-12.531-4.074-12.412-1.555-13.104 2.19-12.579-8.985-11.553-10.163-11.695-10.518-15.491-2.347-10.574 7.093-11.386 5.26-9.762 8.717-14.107 2.824-9.404 9.387-8.76 12.019-15.371 2.347-7.352 13.819-14.011 4.639-7.399 13.447-12.818 6.459-7.423 13.058-14.011 5.452-8.736 11.449-10.598 9.495-8.163 11.982-7.423 12.527-6.445 12.178-6.97 11.875-13.366 5.278-5.967 13.552-10.741 8.436-13.844 1.193-12.078 6.036-12.221-7.837-14.273 5.612-9.963-11.384-14.644 1.961-8.24-13.834-13.65-1.133-12.782-2.948-10.979-7.675-11.334-7.975-13.76 2.117-11.827-8.488-13.77 6.6-12.736-2.013-12.519-6.247-12.861-1.193-13.147 1.67-12.904-1.5-12.717-2.717-12.746-6.969-13.503-2.969-13.548-3.101-13.743-2.402-14.066.017-13.753-.282-13.565-7.004-13.555 5.595-13.672-3.85-13.505 3.778-13.646.716-13.584-2.046-13.367-2.824-14.385 1.147-11.407-9.653-11.696-7.286-13.109-4.467-13.366-4.146-8.784-13.571-14.627-.76-13.02-3.511-13.004-3.528-12.431-6.847-13.085 3.527-12.796 2.843-12.746 2.011-12.77 1.958L32.18 120.3l-12.65 7.448-13.064 1.67-12.844-3.936-13.994.442-12.718-7.296-12.65-5.806-12.694-5.154-14.913 1.784-11.867-8.011-12.808-5.135-13.367-3.37-12.772-5.295-12.431-7.096-15.038 4.184-12.738-5.86-11.995-8.787-12.948-4.253-15.138 2.805-10.942-10.322-14.127-.444-8.116-10.957-8.366-8.636" stroke="#232323" stroke-width="2"/><path d="M2092.34 329.817l-7.42-.357-25.35-4.167-25.71-.186-25.11-4.809-24.92-5.743-25.9.339-25.32-3.37-23.97-9.991-26.39 1.979-25.4-2.876-24.4-7.709-24.08-4.827-24.99-3.47-18.76-16.837-21.63-10.129-24.92-5.114-20.24-12.736-20.81-11.856-22.7-8.906-19.64-14.072-29.39-3.997-28.69-3.845-27.83-7.995-23.58-9.638-17.93-16.478-21-12.534-20.86-13.039-24.28-6.488-25.25-.677-24.27 7.298-24.09 4.625-24.89 1.457-24.75 2.793-22.68 10.452-24.2 5.366-24.16 6.301-25.44 5.248-24.28 8.028-23.91 9.027-24.88 7.809-27.06-.05-19.43-16.278-23.42 9.063-22.6 10.38-23.63 8.555-25.11 4.055-24.73 1.948-25.587 3.149-25.015-7.871-26.351-.954-25.778-3.404-25.707-4.944-24.513 3.082-24.394-.406-24.18 3.339-24.226 2.457-24.92-.999-24.012 4.352-24.728-.252-23.415 8.874-24.895-4.555-24.156.777-24.413 2.49-24.277-.016-22.379-10.568-24.652 3.556-23.358 2.828-25.573 4.532-19.274 16.192-24.151 8.875-19.081 15.615-20.119 14.699-22.914 11.232-25.232 6.368-25.778 2.147-27.211 4.35-27.449-4.014-27.413 3.203-27.397-.763-27.915-.306-23.699 10.283-25.609 2.234-25.704 2.49-22.487 12.956-25.301 3.945L-3.5 325" stroke="#232323" stroke-width="2"/><path d="M2336.61 386.233l-20.64-4.054-15.06-13.006-21.82-6.285-21.82-6.356-16.85-11.086-17.47-10.559-18.64-9.54-25.97-1.755-18.76-9.329-21.75-5.779-19.5-9.001-22.55.544-18.6-10.325-21.67-1.846-21.67-1.088-21.63-.164-21.67 3.732-21.22-4.164-21.08-1.593-22.2 2.244-21.38-9.218-19.57-10.432-19.84-10.814-26.28-2.385-17.92 7.281-19.34 5.398-16.56 8.927-23.92 2.917-15.97 9.636-14.82 12.333-26.09 2.409-12.46 14.181-23.77 4.771-12.56 13.783-21.77 6.647-12.6 13.402-23.72 5.579-14.85 11.772-18 9.743-13.82 12.3-12.55 12.86-10.96 12.496-11.81 12.188-22.68 5.399-10.12 13.91-18.21 8.658-23.51 1.247-20.51 6.202-20.67-8.057-24.25 5.76-16.9-11.687-24.82 2.01-13.99-14.198-23.17-1.178-21.68-3.027-18.61-7.871-19.24-8.204-23.35 2.192-20.07-8.73-23.34 6.793-21.61-2.065-21.24-6.411-21.82-1.215-22.29 1.72-21.89-1.538-21.57-2.791-21.63-7.155-22.866-3.062-23.009-3.168-23.296-2.464-23.869.02-23.32-.291-23.009-7.208-22.986 5.757-23.201-3.947-22.914 3.876-23.153.744-23.033-2.101-22.676-2.901-24.394 1.179-19.333-9.908-19.836-7.479-22.245-4.585-22.652-4.255-14.894-13.926-24.824-.78-22.088-3.604-22.064-3.623-21.079-7.045-22.198 3.639-21.721 2.92-21.618 2.063-21.663 2.01-22.509-8.331-21.482 7.661-22.152 1.72-21.788-4.055-23.737.477-21.602-7.518-21.482-5.962-21.529-5.288-25.301 1.827-20.132-8.224-21.72-5.271-22.676-3.458L160 304.5" stroke="#232323" stroke-width="2"/></svg>