<svg width="65" height="21" viewBox="0 0 65 21" fill="none" xmlns="http://www.w3.org/2000/svg">
<path d="M53.9715 20.7824C54.0627 20.7825 54.153 20.7656 54.2369 20.7326C54.3209 20.6996 54.3967 20.6513 54.4599 20.5905L64.4438 11.0198C64.5659 10.9033 64.6341 10.7475 64.6341 10.5852C64.6341 10.423 64.5659 10.2672 64.4438 10.1507L54.4165 0.541154C54.3557 0.478316 54.2818 0.427449 54.1993 0.391594C54.1168 0.355739 54.0273 0.335631 53.9362 0.332472C53.8451 0.329313 53.7542 0.343167 53.669 0.373208C53.5838 0.403248 53.5061 0.448858 53.4404 0.507311C53.3747 0.565764 53.3224 0.63586 53.2867 0.713411C53.2509 0.790962 53.2325 0.874376 53.2324 0.958667C53.2324 1.04296 53.2507 1.1264 53.2863 1.20399C53.3219 1.28159 53.374 1.35176 53.4396 1.4103L63.0125 10.5846L53.4831 19.7201C53.3907 19.8087 53.3285 19.9204 53.3044 20.0414C53.2802 20.1624 53.2951 20.2873 53.3472 20.4006C53.3992 20.5138 53.4862 20.6104 53.5972 20.6783C53.7082 20.7462 53.8384 20.7824 53.9715 20.7824Z" fill="white"/>
<path d="M31.1549 11.0571H63.9597C64.1396 11.0571 64.3122 11.0045 64.4394 10.9107C64.5666 10.8169 64.6381 10.6897 64.6381 10.5571C64.6381 10.4245 64.5666 10.2973 64.4394 10.2036C64.3122 10.1098 64.1396 10.0571 63.9597 10.0571H31.1549C30.975 10.0571 30.8025 10.1098 30.6752 10.2036C30.548 10.2973 30.4766 10.4245 30.4766 10.5571C30.4766 10.6897 30.548 10.8169 30.6752 10.9107C30.8025 11.0045 30.975 11.0571 31.1549 11.0571Z" fill="white"/>
<rect x="0.876953" y="10.0571" width="30.9245" height="1" rx="0.5" fill="white"/>
</svg>
